<?xml version="1.0" encoding="utf-8"?>
<!-- Generator: Adobe Illustrator 17.0.0, SVG Export Plug-In . SVG Version: 6.00 Build 0)  -->
<!DOCTYPE svg PUBLIC "-//W3C//DTD SVG 1.1//EN" "http://www.w3.org/Graphics/SVG/1.1/DTD/svg11.dtd">
<svg version="1.1" xmlns="http://www.w3.org/2000/svg" xmlns:xlink="http://www.w3.org/1999/xlink" x="0px" y="0px"
	 width="64.764px" height="71.87px" viewBox="0 0 64.764 71.87" enable-background="new 0 0 64.764 71.87" xml:space="preserve">
<g id="Ebene_1" display="none" opacity="0.3">
	<path display="inline" d="M21.112,32.772c-0.758,0.445-1.574,0.829-0.758,1.907c0.047,0.062-0.475,0.745-0.586,0.707
		c-0.761-0.257-1.159-0.09-1.473,0.692c-0.293,0.73-0.78,0.612-1.048-0.08c-0.252-0.652-0.61-0.871-1.292-0.596
		c-0.2,0.08-0.601,0.001-0.718-0.152c-0.114-0.148,0.01-0.487,0.046-0.739c0.052-0.362,0.119-0.723,0.18-1.084
		c-0.121-0.014-0.242-0.028-0.364-0.043c0,0.147,0.064,0.354-0.01,0.431c-0.919,0.967-1.438,1.967-0.375,3.163
		c-0.329,0.184-0.639,0.455-0.991,0.529c-0.442,0.092-0.918,0.022-1.379,0.022c0.01,0.136,0.02,0.272,0.03,0.408
		c0.208-0.068,0.486-0.258,0.612-0.185c1.417,0.814,2.299,0.494,2.968-1.045c0.207-0.477,1.078-0.349,1.207,0.425
		c0.216,1.299,0.852,1.697,2.105,1.266c0.232-0.08,0.717,0.132,0.858,0.354c0.134,0.211,0.088,0.715-0.083,0.911
		c-0.843,0.961-0.672,1.679,0.345,2.367c0.217,0.147,0.403,0.622,0.323,0.847c-0.088,0.248-0.502,0.544-0.767,0.537
		c-1.258-0.032-1.747,0.516-1.63,1.758c0.025,0.262-0.245,0.706-0.48,0.794c-0.24,0.09-0.736-0.058-0.895-0.27
		c-0.746-0.998-1.466-1.103-2.37-0.195c-0.183,0.184-0.699,0.244-0.925,0.118c-0.219-0.123-0.418-0.601-0.353-0.852
		c0.308-1.184-0.022-1.843-1.295-2.006c-0.266-0.034-0.681-0.387-0.688-0.603c-0.01-0.306,0.219-0.736,0.481-0.914
		c1.323-0.899,1.338-0.876,0.501-2.397c-0.718,0.449-1.329,0.532-1.69-0.469c-0.254-0.704-0.763-0.806-1.453-0.476
		c-0.294,0.141-0.712,0.024-1.074,0.024c0.002-0.353-0.107-0.759,0.028-1.05c0.368-0.792,0.186-1.266-0.597-1.634
		c-0.262-0.123-0.625-0.574-0.565-0.726c0.115-0.289,0.47-0.595,0.78-0.672c0.84-0.209,1.112-0.641,0.92-1.483
		c-0.065-0.286,0.058-0.865,0.188-0.894c0.32-0.072,0.696,0.094,1.047,0.172c0.444,0.099,0.886,0.206,1.321,0.308
		c-0.57-0.704-1.08-1.183-1.4-1.766c-0.498-0.909-1.046-1.052-1.942-0.537c-0.45,0.258-1.049,0.256-1.581,0.372
		c-0.114-0.535-0.344-1.075-0.319-1.604c0.052-1.122-0.241-1.452-1.39-1.583c-0.516-0.059-1.184-0.27-1.435-0.645
		c-0.165-0.248,0.199-0.975,0.485-1.374c0.711-0.994,0.651-1.421-0.309-2.174c-0.384-0.301-0.935-0.885-0.849-1.174
		c0.127-0.427,0.703-0.829,1.178-1.021c1.136-0.461,1.298-0.808,0.883-2.002c-0.161-0.463-0.295-1.29-0.074-1.453
		c0.375-0.276,1.062-0.274,1.581-0.181c1.136,0.204,1.484-0.029,1.757-1.161C7.898,15.14,8.193,14.5,8.594,14.31
		c0.271-0.129,0.945,0.332,1.295,0.675c0.894,0.876,1.257,0.876,2.172-0.005c0.351-0.338,1.048-0.792,1.294-0.657
		c0.406,0.222,0.695,0.85,0.819,1.359c0.268,1.105,0.613,1.319,1.764,1.116c0.512-0.09,1.217-0.055,1.564,0.24
		c0.228,0.195,0.076,0.991-0.085,1.457c-0.424,1.229-0.267,1.535,1.016,2.019c0.418,0.158,0.98,0.544,1.033,0.892
		c0.054,0.356-0.352,0.906-0.706,1.176c-1.194,0.911-1.226,1.158-0.321,2.414c0.257,0.356,0.473,0.998,0.318,1.323
		c-0.152,0.318-0.791,0.533-1.232,0.561c-1.382,0.087-1.65,0.394-1.536,1.765c0.037,0.445-0.076,1.105-0.371,1.314
		c-0.273,0.193-0.948,0.035-1.327-0.179c-1.364-0.769-1.744-0.648-2.196,0.551c0.366,0.808,0.753,1.323,0.814,1.873
		c0.113,1.02,0.755,0.968,1.333,0.728c0.423-0.314,0.892-0.584,1.255-0.958c0.26-0.268,0.514-0.667,0.532-1.02
		c0.046-0.902,0.398-1.008,1.016-0.481c0.477,0.408,0.853,0.498,1.344,0.023c0.183-0.177,0.549-0.278,0.796-0.23
		c0.129,0.025,0.261,0.451,0.252,0.691c-0.028,0.681,0.149,1.083,1.101,0.938c-1.051-1.748-1.312-3.594-0.932-5.457
		c0.721-3.539,3.228-5.824,6.964-6.223c3.371-0.36,6.762-0.565,10.15-0.713c5.845-0.255,9.866-3.194,12.519-8.249
		c0.13-0.247,0.249-0.5,0.374-0.75c1.037-2.074,2.351-2.183,3.594-0.26c2.416,3.739,3.646,7.856,3.705,12.297
		c0.013,0.974-0.204,1.984-0.494,2.922c-0.348,1.122-0.093,2.043,0.568,2.915c1.929,2.545,3.877,5.076,5.797,7.627
		c0.352,0.468,0.693,0.976,0.895,1.519c0.337,0.907,0.024,1.674-0.849,2.097c-0.785,0.38-1.604,0.714-2.44,0.962
		c-1.854,0.55-2.224,1.157-1.702,3.024c0.075,0.266,0.166,0.541,0.311,0.773c0.644,1.031,0.179,1.615-0.766,2.059
		c-0.819,0.385-1.637,0.769-0.49,1.77c0.16,0.14,0.022,0.81-0.164,1.125c-0.598,1.014-1.343,1.944-1.9,2.977
		c-0.18,0.334-0.063,0.929,0.1,1.331c1.156,2.868-0.571,5.864-3.647,6.122c-5.18,0.433-9.799-1.327-14.164-3.878
		c-1.341-0.784-1.559-2.257-1.63-3.677c-0.115-2.275-0.15-4.554-0.254-6.829c-0.134-2.932-1.203-5.533-3.536-7.289
		c-1.318-0.993-3.039-1.632-4.674-1.979C25.294,35.561,23.047,34.536,21.112,32.772z M26.812,33.23
		c3.159,0.094,5.827-2.397,5.903-5.511c0.083-3.385-2.409-5.715-5.943-6.01c-2.801-0.234-5.576,3.072-5.612,5.597
		C21.116,30.488,23.581,33.134,26.812,33.23z M14.218,22.728c0.015-1.827-1.414-3.335-3.182-3.357
		c-1.823-0.023-3.297,1.399-3.325,3.207c-0.028,1.823,1.409,3.342,3.177,3.36C12.701,25.955,14.204,24.507,14.218,22.728z
		 M15.78,42.985c0.185,0.003,0.371,0.005,0.556,0.008c0.378-0.508,0.989-0.977,1.08-1.532c0.139-0.845-0.455-1.402-1.366-1.397
		c-0.868,0.005-1.409,0.579-1.289,1.351C14.849,41.977,15.423,42.464,15.78,42.985z M11.348,33.625
		c-0.181,0.001-0.362,0.002-0.542,0.004c-0.308,0.428-0.794,0.822-0.882,1.291c-0.137,0.731,0.401,1.314,1.112,1.195
		c0.447-0.075,1.087-0.666,1.123-1.071C12.199,34.598,11.644,34.1,11.348,33.625z M17.802,31.863
		c-0.448,0.606-0.907,0.954-0.892,1.28c0.016,0.338,0.492,0.654,0.767,0.979c0.337-0.309,0.853-0.57,0.951-0.942
		C18.699,32.908,18.22,32.492,17.802,31.863z"/>
	<path display="inline" d="M23.162,9.632c-0.008-0.039-0.004-0.088-0.026-0.116c-1.451-1.82-1.412-1.847,0.826-2.517
		c0.382-0.114,0.614-0.81,0.854-1.269c0.071-0.135-0.12-0.385-0.102-0.574c0.041-0.43-0.003-1.023,0.25-1.234
		c0.255-0.212,0.88-0.166,1.252-0.014c1.443,0.59,1.67,0.497,2.23-0.885c0.163-0.402,0.573-0.876,0.95-0.963
		c0.283-0.065,0.797,0.369,1.032,0.705c0.877,1.248,1.158,1.299,2.375,0.424c0.332-0.239,0.958-0.484,1.2-0.331
		c0.327,0.207,0.558,0.788,0.578,1.22c0.068,1.502,0.281,1.701,1.798,1.619c0.402-0.022,1.002,0.121,1.178,0.399
		c0.18,0.286,0.08,0.903-0.119,1.247c-0.823,1.42-0.776,1.613,0.615,2.403c0.343,0.195,0.752,0.662,0.738,0.987
		c-0.015,0.34-0.441,0.784-0.797,0.964c-1.387,0.701-1.463,0.925-0.792,2.268c0.195,0.389,0.282,1.004,0.102,1.351
		c-0.131,0.254-0.793,0.367-1.196,0.325c-1.477-0.154-1.648-0.009-1.838,1.546c-0.049,0.401-0.296,0.964-0.604,1.095
		c-0.305,0.13-0.883-0.088-1.2-0.335c-1.29-1.002-1.483-0.983-2.462,0.301c-0.229,0.301-0.765,0.701-0.972,0.613
		c-0.391-0.166-0.787-0.603-0.932-1.015c-0.5-1.426-0.727-1.544-2.179-1.059c-0.387,0.129-1.058,0.16-1.252-0.065
		c-0.255-0.295-0.307-0.92-0.203-1.344c0.339-1.39,0.179-1.657-1.196-1.997c-0.428-0.106-1.021-0.45-1.103-0.79
		c-0.082-0.339,0.303-0.892,0.624-1.206c0.857-0.836,0.929-1.013,0.333-1.791L23.162,9.632z M30.278,7.273
		c-1.761,0.028-3.157,1.488-3.121,3.264c0.036,1.77,1.487,3.182,3.245,3.158c1.746-0.024,3.15-1.496,3.123-3.274
		C33.498,8.653,32.046,7.245,30.278,7.273z"/>
	<path display="inline" d="M21.558,40.261c1.302,0.215,1.721-0.18,1.722-1.187c0.001-0.407,0.197-1.028,0.484-1.161
		c0.284-0.131,0.863,0.143,1.195,0.395c0.792,0.602,1.325,0.488,1.864-0.339c0.219-0.336,0.688-0.679,1.052-0.689
		c0.245-0.007,0.614,0.527,0.739,0.885c0.334,0.956,0.825,1.265,1.804,0.804c0.357-0.168,0.942-0.188,1.254,0.001
		c0.206,0.125,0.226,0.776,0.129,1.138c-0.274,1.021,0.077,1.497,1.097,1.661c0.373,0.06,0.962,0.321,1,0.562
		c0.057,0.359-0.194,0.875-0.479,1.158c-0.739,0.733-0.75,1.31,0.077,1.98c0.285,0.231,0.593,0.739,0.519,1.025
		c-0.077,0.3-0.576,0.639-0.931,0.692c-1.091,0.162-1.445,0.643-1.107,1.72c0.11,0.35,0.079,1.005-0.129,1.135
		c-0.311,0.194-0.889,0.176-1.258,0.02c-0.931-0.394-1.402-0.141-1.704,0.8c-0.124,0.388-0.486,0.924-0.797,0.966
		c-0.32,0.043-0.81-0.363-1.049-0.699c-0.585-0.823-1.133-0.859-1.871-0.204c-0.284,0.252-0.86,0.553-1.064,0.431
		c-0.318-0.189-0.58-0.712-0.603-1.109c-0.059-1.027-0.458-1.432-1.514-1.296c-0.398,0.051-0.962-0.107-1.212-0.384
		c-0.162-0.18,0.002-0.817,0.204-1.131c0.595-0.921,0.322-1.442-0.599-1.876c-0.343-0.161-0.836-0.598-0.798-0.834
		c0.059-0.367,0.453-0.791,0.814-0.977c0.872-0.45,1.058-0.967,0.542-1.822c-0.213-0.353-0.415-0.929-0.267-1.225
		C20.823,40.402,21.414,40.324,21.558,40.261z M29.676,44.603c0.02-1.519-1.163-2.774-2.662-2.822
		c-1.603-0.051-2.883,1.228-2.872,2.871c0.009,1.458,1.292,2.687,2.805,2.688C28.478,47.34,29.655,46.16,29.676,44.603z"/>
	<path display="inline" d="M23.125,9.595c-0.025,0.984-0.405,1.594-1.486,1.759c-0.99,0.151-1.05,0.86-0.843,1.739
		c0.106,0.452-0.114,0.981-0.187,1.476c-0.488-0.094-1.083-0.043-1.445-0.309c-0.942-0.694-1.546-0.475-2.194,0.399
		c-0.249,0.337-0.85,0.684-1.188,0.602c-0.295-0.071-0.603-0.728-0.63-1.144c-0.074-1.148-0.539-1.654-1.734-1.58
		c-0.409,0.025-1.073-0.234-1.199-0.538c-0.127-0.306,0.15-0.97,0.459-1.231c0.9-0.761,0.99-1.421,0.166-2.306
		c-0.28-0.3-0.485-0.962-0.338-1.279c0.127-0.273,0.817-0.435,1.234-0.395c1.414,0.134,1.584,0.014,1.944-1.406
		C15.779,5,16.133,4.477,16.449,4.413c0.304-0.062,0.843,0.303,1.05,0.626c0.873,1.367,0.893,1.377,2.464,0.694
		c0.323-0.14,0.852-0.11,1.141,0.072c0.217,0.136,0.35,0.686,0.265,0.977c-0.593,2.023-0.456,2.27,1.793,2.85
		C23.162,9.632,23.125,9.595,23.125,9.595z M17.271,11.509c0.859,0.075,1.634-0.593,1.704-1.468
		c0.068-0.841-0.629-1.627-1.494-1.685c-0.912-0.061-1.635,0.56-1.695,1.456C15.729,10.674,16.392,11.432,17.271,11.509z"/>
	<path display="inline" d="M45.995,4.795c-0.203,1.564,0.416,1.978,1.556,2.012c0.382,0.011,1.028,0.334,1.066,0.588
		c0.057,0.382-0.207,0.95-0.521,1.226c-1.151,1.011-1.159,1.059-0.367,2.364c0.216,0.356,0.297,0.961,0.137,1.314
		c-0.099,0.218-0.799,0.304-1.182,0.225c-1.406-0.292-1.59-0.18-2.096,1.172c-0.148,0.395-0.582,0.844-0.963,0.934
		c-0.24,0.056-0.744-0.449-0.926-0.806c-0.645-1.269-0.861-1.351-2.233-0.866c-0.369,0.13-1.063,0.114-1.217-0.107
		c-0.213-0.307-0.223-0.964-0.029-1.307c0.571-1.014,0.408-1.682-0.585-2.294c-0.373-0.23-0.563-0.757-0.836-1.148
		c0.401-0.262,0.774-0.671,1.21-0.758c1.071-0.212,1.359-0.747,1.18-1.79C40.112,5.11,40.416,4.6,40.548,4.12
		c0.446,0.132,0.999,0.142,1.317,0.42c0.834,0.731,1.471,0.751,2.233-0.114c0.294-0.334,0.926-0.6,1.334-0.524
		C45.724,3.957,45.901,4.632,45.995,4.795z M43.356,10.643c0.872-0.03,1.575-0.771,1.547-1.631c-0.028-0.85-0.788-1.559-1.653-1.54
		c-0.863,0.019-1.583,0.782-1.539,1.633C41.755,9.984,42.492,10.673,43.356,10.643z"/>
	<path display="inline" d="M18.788,54.937c0.022-0.872,0.666-1.319,1.58-1.095c7.158,1.755,14.316,3.513,21.475,5.264
		c0.385,0.094,0.786,0.123,1.171,0.216c0.76,0.182,1.07,0.729,0.903,1.437c-0.168,0.711-0.685,1.052-1.452,0.864
		c-7.273-1.779-14.546-3.56-21.82-5.335C19.834,56.09,18.77,56.264,18.788,54.937z"/>
	<path display="inline" d="M17.596,61.594c-0.034-1.267,0.643-1.741,1.613-1.502c7.234,1.782,14.468,3.561,21.704,5.335
		c0.307,0.075,0.758-0.021,0.918,0.161c0.37,0.421,0.859,0.979,0.83,1.453c-0.042,0.694-0.66,0.995-1.436,0.808
		c-7.548-1.823-15.101-3.622-22.642-5.473C18.147,62.268,17.807,61.768,17.596,61.594z"/>
	<path display="inline" d="M16.873,64.984c-0.019-1.313,0.657-1.767,1.633-1.526c7.233,1.784,14.468,3.561,21.704,5.334
		c0.307,0.075,0.763-0.021,0.918,0.16c0.364,0.426,0.844,0.991,0.809,1.465c-0.052,0.692-0.669,0.974-1.447,0.785
		c-7.508-1.822-15.023-3.614-22.525-5.457C17.492,65.628,17.108,65.154,16.873,64.984z"/>
	<path display="inline" d="M18.308,58.052c0.025-0.872,0.668-1.314,1.584-1.089c7.158,1.756,14.316,3.513,21.475,5.264
		c0.385,0.094,0.901,0.013,1.145,0.24c0.404,0.377,0.894,0.945,0.881,1.419c-0.02,0.697-0.645,1.043-1.413,0.855
		c-7.273-1.78-14.546-3.56-21.82-5.334C19.348,59.209,18.286,59.38,18.308,58.052z"/>
	<path display="inline" d="M23.839,24.938c1.054,0.188,1.422-0.177,1.586-0.946c0.077-0.364,0.396-0.677,0.606-1.013
		c0.328,0.218,0.781,0.362,0.958,0.667c0.462,0.793,0.958,0.943,1.766,0.488c0.302-0.17,0.768-0.05,1.159-0.062
		c0.008,0.36,0.132,0.769,0.004,1.071c-0.386,0.915-0.104,1.413,0.783,1.765c0.292,0.116,0.664,0.532,0.646,0.786
		c-0.019,0.267-0.42,0.645-0.723,0.73c-0.932,0.262-1.239,0.729-0.921,1.678c0.1,0.3-0.005,0.926-0.188,1.005
		c-0.299,0.129-0.811,0.043-1.106-0.148c-0.759-0.494-1.278-0.433-1.804,0.342c-0.193,0.284-0.683,0.505-1.027,0.492
		c-0.179-0.007-0.458-0.577-0.48-0.907c-0.059-0.889-0.387-1.309-1.346-1.241c-0.348,0.025-0.822-0.204-1.039-0.476
		c-0.109-0.137,0.14-0.726,0.379-0.944c0.662-0.602,0.733-1.15,0.171-1.862c-0.219-0.278-0.45-0.862-0.32-1.028
		C23.163,25.059,23.666,25.005,23.839,24.938z M28.329,27.756c0.001-0.183,0.003-0.366,0.004-0.549
		c-0.489-0.34-0.943-0.88-1.476-0.974c-0.765-0.135-1.265,0.451-1.275,1.224c-0.011,0.784,0.507,1.359,1.259,1.249
		C27.372,28.628,27.836,28.089,28.329,27.756z"/>
</g>
<g id="Ebene_2">
	<path d="M22.669,5.531c0.766,0.103,1.531,0.21,2.298,0.303c0.064,0.008,0.155-0.066,0.206-0.126
		c0.312-0.367,0.61-0.746,0.928-1.108c0.091-0.103,0.087-0.185,0.05-0.296c-0.212-0.643-0.414-1.288-0.634-1.928
		c-0.055-0.159-0.024-0.227,0.123-0.303c0.526-0.274,1.045-0.563,1.583-0.856c0.136,0.172,0.259,0.326,0.38,0.482
		c0.338,0.437,0.677,0.873,1.008,1.315c0.077,0.103,0.15,0.124,0.278,0.108c0.465-0.057,0.931-0.103,1.398-0.131
		c0.146-0.009,0.221-0.053,0.282-0.18c0.287-0.598,0.587-1.189,0.87-1.788c0.079-0.168,0.157-0.222,0.345-0.159
		c0.484,0.162,0.973,0.314,1.467,0.445c0.202,0.054,0.236,0.146,0.21,0.335c-0.092,0.663-0.164,1.329-0.254,1.992
		c-0.019,0.14,0.029,0.208,0.133,0.289c0.363,0.284,0.72,0.576,1.067,0.879C34.514,4.9,34.595,4.93,34.734,4.88
		c0.638-0.226,1.281-0.436,1.919-0.663c0.161-0.057,0.241-0.033,0.321,0.126c0.239,0.475,0.492,0.943,0.749,1.408
		c0.073,0.133,0.063,0.208-0.064,0.305c-0.549,0.418-1.087,0.852-1.633,1.274c-0.106,0.082-0.134,0.157-0.115,0.295
		c0.061,0.457,0.107,0.917,0.138,1.377c0.01,0.145,0.052,0.221,0.181,0.283c0.616,0.296,1.225,0.606,1.842,0.899
		c0.146,0.069,0.165,0.143,0.119,0.288c-0.167,0.52-0.324,1.042-0.476,1.566c-0.039,0.136-0.105,0.169-0.238,0.152
		c-0.684-0.089-1.37-0.167-2.054-0.259c-0.143-0.019-0.218,0.022-0.306,0.137c-0.28,0.366-0.575,0.722-0.878,1.069
		c-0.089,0.102-0.117,0.178-0.071,0.308c0.247,0.703,0.484,1.41,0.733,2.14c-0.289,0.157-0.577,0.314-0.867,0.47
		c-0.249,0.134-0.505,0.258-0.748,0.402c-0.132,0.078-0.203,0.046-0.289-0.067c-0.416-0.542-0.843-1.076-1.258-1.62
		c-0.092-0.121-0.178-0.148-0.331-0.127c-0.449,0.063-0.902,0.107-1.355,0.14c-0.141,0.01-0.22,0.043-0.286,0.176
		c-0.313,0.63-0.64,1.254-0.962,1.88c-0.661-0.201-1.322-0.402-1.983-0.603c0.097-0.717,0.198-1.435,0.286-2.153
		c0.008-0.061-0.048-0.151-0.101-0.195c-0.374-0.314-0.758-0.616-1.129-0.933c-0.092-0.079-0.165-0.096-0.276-0.057
		c-0.332,0.115-0.668,0.221-1.003,0.33c-0.379,0.123-0.759,0.246-1.149,0.372c-0.306-0.574-0.607-1.132-0.896-1.696
		c-0.02-0.039,0.038-0.148,0.088-0.187c0.543-0.426,1.09-0.846,1.64-1.262c0.098-0.074,0.132-0.144,0.115-0.275
		c-0.061-0.477-0.096-0.958-0.155-1.435c-0.011-0.085-0.069-0.2-0.139-0.237c-0.671-0.353-1.35-0.692-2.026-1.035
		C22.276,6.826,22.472,6.179,22.669,5.531z M27.442,8.067c-0.459,1.511,0.398,3.108,1.911,3.562
		c1.486,0.445,3.084-0.413,3.538-1.902c0.458-1.5-0.39-3.104-1.884-3.563C29.498,5.701,27.902,6.553,27.442,8.067z"/>
	<path d="M39.933,3.888c0.412,0.309,0.823,0.621,1.239,0.925c0.035,0.025,0.112,0.012,0.161-0.006
		c0.301-0.112,0.598-0.236,0.901-0.343c0.086-0.031,0.111-0.079,0.126-0.156c0.086-0.443,0.178-0.885,0.259-1.329
		c0.02-0.11,0.06-0.14,0.17-0.137c0.395,0.012,0.791,0.013,1.2,0.018c0.023,0.144,0.045,0.274,0.064,0.404
		c0.054,0.364,0.11,0.729,0.159,1.094c0.011,0.085,0.047,0.121,0.127,0.153c0.289,0.118,0.575,0.243,0.856,0.379
		c0.088,0.042,0.146,0.041,0.223-0.013c0.361-0.254,0.729-0.501,1.089-0.758c0.101-0.072,0.163-0.078,0.253,0.02
		c0.229,0.252,0.465,0.499,0.709,0.737c0.1,0.097,0.09,0.162,0.013,0.263c-0.269,0.356-0.528,0.72-0.797,1.077
		c-0.057,0.075-0.051,0.13-0.017,0.212c0.119,0.284,0.232,0.57,0.335,0.859c0.032,0.09,0.069,0.134,0.166,0.15
		c0.445,0.076,0.888,0.164,1.333,0.239c0.112,0.019,0.151,0.059,0.146,0.178c-0.016,0.354-0.02,0.709-0.023,1.064
		c-0.001,0.101-0.031,0.142-0.137,0.157c-0.456,0.065-0.91,0.142-1.365,0.21c-0.088,0.013-0.129,0.048-0.163,0.134
		c-0.113,0.286-0.236,0.569-0.368,0.846c-0.042,0.088-0.042,0.146,0.013,0.224c0.262,0.373,0.516,0.752,0.779,1.123
		c0.062,0.088,0.05,0.137-0.025,0.206c-0.266,0.248-0.528,0.501-0.787,0.757c-0.067,0.066-0.117,0.064-0.188,0.011
		c-0.369-0.275-0.743-0.543-1.111-0.82c-0.077-0.058-0.134-0.058-0.222-0.02c-0.282,0.122-0.57,0.233-0.859,0.337
		c-0.085,0.03-0.126,0.066-0.142,0.156c-0.085,0.49-0.177,0.978-0.27,1.485c-0.219-0.003-0.438-0.005-0.657-0.009
		c-0.189-0.003-0.378-0.014-0.566-0.01c-0.103,0.002-0.133-0.039-0.147-0.133c-0.066-0.451-0.14-0.901-0.205-1.353
		c-0.014-0.101-0.056-0.144-0.151-0.181c-0.282-0.109-0.56-0.231-0.834-0.36c-0.085-0.04-0.142-0.047-0.224,0.009
		c-0.388,0.265-0.781,0.521-1.172,0.781c-0.319-0.332-0.639-0.664-0.958-0.996c0.29-0.386,0.582-0.771,0.868-1.16
		c0.024-0.033,0.021-0.103,0.005-0.147c-0.115-0.305-0.241-0.605-0.354-0.911c-0.028-0.076-0.064-0.11-0.142-0.123
		c-0.231-0.041-0.461-0.089-0.691-0.135c-0.261-0.052-0.522-0.104-0.79-0.157c0.009-0.434,0.015-0.857,0.031-1.279
		c0.001-0.029,0.07-0.074,0.113-0.08c0.455-0.071,0.91-0.137,1.365-0.201c0.081-0.011,0.124-0.041,0.157-0.122
		c0.12-0.298,0.256-0.589,0.377-0.886c0.022-0.053,0.025-0.139-0.004-0.183c-0.276-0.424-0.56-0.842-0.843-1.262
		C39.282,4.514,39.607,4.201,39.933,3.888z M41.885,6.918c-0.759,0.73-0.78,1.939-0.047,2.696c0.72,0.743,1.93,0.763,2.679,0.045
		c0.755-0.724,0.784-1.934,0.063-2.687C43.852,6.211,42.646,6.187,41.885,6.918z"/>
	<path d="M56.988,22.615c-0.126,0.64-0.259,1.712-0.559,2.735c-0.349,1.191-0.107,2.185,0.624,3.14
		c1.822,2.38,3.485,4.898,5.466,7.137c2.678,3.027,0.743,4.253-1.708,4.957c-2.514,0.722-2.91,1.326-1.832,3.71
		c0.511,1.13,0.219,1.711-0.798,2.176c-0.792,0.361-1.553,0.729-0.477,1.693c0.174,0.156,0.076,0.817-0.103,1.124
		c-0.375,0.641-0.914,1.183-1.339,1.799c-0.664,0.963-0.834,1.875-0.336,3.1c0.996,2.451-0.913,5.329-3.675,5.536
		c-1.768,0.133-3.64,0.113-5.337-0.331c-2.607-0.683-5.117-1.753-7.641-2.729c-2.082-0.805-2.915-2.452-2.949-4.625
		c-0.033-2.118-0.105-4.238-0.247-6.352c-0.315-4.714-2.529-8.408-7.955-9.498c-1.611-0.323-3.216-0.946-4.671-1.718
		c-3.062-1.627-4.351-4.337-3.913-7.672c0.413-3.145,2.597-5.667,5.901-6.312c2.416-0.471,4.913-0.53,7.375-0.76
		c2.263-0.211,4.559-0.237,6.787-0.643c4.674-0.852,7.598-3.966,9.721-7.998c0.468-0.888,0.681-2.084,1.995-2.142
		c1.41-0.063,1.812,1.165,2.367,2.089C55.74,14.454,56.71,18.21,56.988,22.615z M26.983,33.24c3.167-0.007,5.729-2.553,5.739-5.703
		c0.011-3.21-2.586-5.799-5.791-5.772c-3.179,0.026-5.745,2.567-5.757,5.701C21.162,30.656,23.769,33.247,26.983,33.24z"/>
	<path d="M24.315,24.123c0.312,0.234,0.622,0.47,0.937,0.7c0.026,0.019,0.085,0.009,0.122-0.005
		c0.228-0.085,0.452-0.178,0.681-0.259c0.065-0.023,0.084-0.06,0.095-0.118c0.065-0.335,0.135-0.669,0.196-1.005
		c0.015-0.083,0.045-0.106,0.129-0.103c0.299,0.009,0.599,0.009,0.908,0.013c0.017,0.109,0.034,0.207,0.049,0.306
		c0.041,0.276,0.083,0.551,0.12,0.828c0.009,0.064,0.036,0.091,0.096,0.116c0.219,0.089,0.435,0.184,0.648,0.287
		c0.066,0.032,0.11,0.031,0.169-0.01c0.274-0.193,0.551-0.379,0.824-0.573c0.076-0.055,0.124-0.059,0.191,0.015
		c0.173,0.191,0.351,0.378,0.536,0.557c0.076,0.074,0.068,0.123,0.01,0.199c-0.204,0.269-0.399,0.545-0.603,0.815
		c-0.043,0.057-0.038,0.099-0.013,0.16c0.09,0.215,0.175,0.431,0.253,0.65c0.024,0.068,0.052,0.101,0.126,0.114
		c0.337,0.057,0.672,0.124,1.008,0.181c0.085,0.014,0.114,0.045,0.111,0.134c-0.012,0.268-0.015,0.536-0.017,0.805
		c-0.001,0.076-0.023,0.107-0.103,0.118c-0.345,0.049-0.688,0.107-1.033,0.159c-0.067,0.01-0.098,0.036-0.123,0.102
		c-0.086,0.216-0.179,0.43-0.278,0.64c-0.031,0.066-0.031,0.11,0.01,0.169c0.198,0.282,0.39,0.569,0.59,0.85
		c0.047,0.067,0.038,0.104-0.019,0.156c-0.201,0.188-0.4,0.379-0.595,0.573c-0.051,0.05-0.088,0.049-0.142,0.008
		c-0.279-0.208-0.562-0.411-0.841-0.62c-0.058-0.044-0.101-0.044-0.168-0.015c-0.214,0.092-0.431,0.176-0.65,0.255
		c-0.064,0.023-0.095,0.05-0.107,0.118c-0.064,0.371-0.134,0.74-0.204,1.123c-0.166-0.002-0.332-0.004-0.497-0.007
		c-0.143-0.002-0.286-0.011-0.428-0.007c-0.078,0.002-0.101-0.03-0.111-0.101c-0.05-0.341-0.106-0.682-0.155-1.023
		c-0.011-0.076-0.042-0.109-0.114-0.137c-0.214-0.083-0.424-0.175-0.631-0.272c-0.064-0.03-0.107-0.035-0.169,0.007
		c-0.293,0.2-0.591,0.394-0.887,0.591c-0.242-0.251-0.483-0.503-0.725-0.754c0.22-0.292,0.441-0.583,0.657-0.878
		c0.018-0.025,0.016-0.078,0.004-0.111c-0.087-0.231-0.182-0.458-0.268-0.689c-0.021-0.057-0.049-0.083-0.107-0.093
		c-0.175-0.031-0.349-0.067-0.523-0.102c-0.197-0.039-0.395-0.079-0.598-0.119c0.007-0.328,0.011-0.648,0.023-0.968
		c0.001-0.022,0.053-0.056,0.085-0.061c0.344-0.054,0.688-0.104,1.033-0.152c0.061-0.009,0.094-0.031,0.119-0.093
		c0.091-0.225,0.194-0.445,0.285-0.67c0.016-0.04,0.019-0.105-0.003-0.139c-0.209-0.321-0.424-0.637-0.637-0.955
		C23.822,24.597,24.069,24.36,24.315,24.123z M25.792,26.416c-0.574,0.552-0.59,1.467-0.036,2.039
		c0.545,0.562,1.46,0.578,2.027,0.034c0.571-0.548,0.593-1.463,0.048-2.033C27.28,25.881,26.367,25.863,25.792,26.416z"/>
	<path d="M1.749,18.674c0.832,0.112,1.664,0.229,2.498,0.33c0.069,0.008,0.169-0.072,0.224-0.137
		c0.339-0.399,0.663-0.811,1.008-1.204c0.098-0.112,0.094-0.201,0.055-0.322c-0.23-0.699-0.45-1.401-0.689-2.096
		c-0.059-0.173-0.026-0.247,0.133-0.33c0.572-0.297,1.136-0.612,1.721-0.93c0.147,0.187,0.282,0.354,0.413,0.524
		c0.367,0.475,0.736,0.949,1.096,1.43c0.084,0.112,0.163,0.134,0.302,0.117c0.505-0.062,1.012-0.112,1.52-0.143
		c0.158-0.01,0.24-0.057,0.307-0.196c0.312-0.65,0.639-1.292,0.946-1.944c0.086-0.183,0.17-0.241,0.375-0.172
		c0.527,0.177,1.058,0.341,1.595,0.484c0.22,0.059,0.257,0.159,0.228,0.364c-0.1,0.721-0.178,1.445-0.276,2.166
		c-0.021,0.152,0.031,0.226,0.144,0.314c0.394,0.309,0.783,0.626,1.16,0.956c0.117,0.103,0.205,0.135,0.356,0.082
		c0.693-0.246,1.393-0.474,2.086-0.72c0.175-0.062,0.262-0.036,0.349,0.137c0.26,0.516,0.535,1.025,0.814,1.531
		c0.079,0.144,0.069,0.226-0.07,0.331c-0.597,0.455-1.181,0.926-1.775,1.385c-0.115,0.089-0.145,0.171-0.125,0.321
		c0.067,0.497,0.117,0.997,0.15,1.497c0.011,0.158,0.057,0.241,0.197,0.308c0.669,0.322,1.332,0.659,2.002,0.978
		c0.159,0.075,0.179,0.155,0.129,0.313c-0.181,0.565-0.353,1.133-0.517,1.703c-0.043,0.147-0.115,0.184-0.259,0.165
		c-0.744-0.097-1.489-0.182-2.233-0.282c-0.156-0.021-0.237,0.024-0.332,0.148c-0.305,0.398-0.625,0.785-0.954,1.163
		c-0.097,0.111-0.127,0.194-0.077,0.335c0.269,0.764,0.526,1.533,0.797,2.327c-0.314,0.17-0.628,0.342-0.942,0.511
		c-0.271,0.146-0.549,0.281-0.813,0.437c-0.144,0.085-0.22,0.05-0.314-0.072c-0.452-0.59-0.917-1.17-1.367-1.761
		c-0.1-0.132-0.194-0.161-0.36-0.138c-0.489,0.069-0.981,0.116-1.473,0.152c-0.153,0.011-0.239,0.046-0.311,0.192
		c-0.341,0.685-0.696,1.363-1.046,2.043c-0.719-0.218-1.437-0.437-2.156-0.655c0.106-0.78,0.215-1.56,0.311-2.341
		c0.008-0.066-0.052-0.164-0.11-0.212c-0.406-0.342-0.824-0.669-1.228-1.014c-0.1-0.086-0.179-0.105-0.3-0.062
		c-0.361,0.126-0.726,0.24-1.09,0.358C3.437,27.176,3.024,27.31,2.6,27.447c-0.333-0.624-0.66-1.23-0.974-1.844
		c-0.022-0.042,0.041-0.161,0.096-0.204c0.59-0.463,1.185-0.919,1.782-1.372c0.107-0.081,0.143-0.157,0.125-0.299
		c-0.066-0.519-0.104-1.041-0.168-1.56c-0.011-0.093-0.075-0.217-0.151-0.257c-0.73-0.384-1.467-0.752-2.203-1.125
		C1.321,20.082,1.535,19.378,1.749,18.674z M6.938,21.431c-0.499,1.642,0.433,3.379,2.078,3.872
		c1.615,0.484,3.352-0.449,3.846-2.067c0.498-1.631-0.424-3.375-2.048-3.873C9.173,18.859,7.438,19.785,6.938,21.431z"/>
	<path d="M10.355,6.879c0.596,0.021,1.193,0.044,1.789,0.056c0.049,0.001,0.114-0.063,0.149-0.113
		c0.212-0.306,0.411-0.62,0.628-0.923c0.062-0.086,0.053-0.149,0.016-0.231c-0.212-0.478-0.417-0.958-0.636-1.433
		c-0.054-0.118-0.036-0.173,0.071-0.242c0.383-0.251,0.759-0.513,1.151-0.779c0.117,0.122,0.224,0.23,0.329,0.341
		c0.293,0.31,0.587,0.619,0.876,0.933c0.067,0.073,0.125,0.083,0.222,0.062c0.353-0.079,0.707-0.151,1.064-0.208
		c0.111-0.018,0.166-0.058,0.203-0.16c0.174-0.481,0.36-0.958,0.531-1.441C16.795,2.605,16.851,2.558,17,2.592
		c0.385,0.088,0.772,0.166,1.162,0.229c0.16,0.026,0.193,0.094,0.187,0.241c-0.02,0.517-0.023,1.034-0.042,1.551
		c-0.004,0.109,0.038,0.158,0.124,0.212c0.301,0.191,0.598,0.387,0.888,0.594c0.09,0.064,0.154,0.081,0.257,0.033
		C20.049,5.228,20.527,5.018,21,4.795c0.119-0.056,0.183-0.044,0.257,0.072c0.22,0.347,0.451,0.686,0.684,1.025
		c0.066,0.096,0.065,0.155-0.026,0.239c-0.39,0.364-0.769,0.738-1.157,1.104c-0.075,0.071-0.091,0.131-0.066,0.236
		c0.082,0.346,0.153,0.696,0.212,1.047c0.019,0.111,0.057,0.166,0.161,0.204c0.496,0.18,0.988,0.371,1.485,0.55
		c0.118,0.042,0.138,0.097,0.113,0.212c-0.088,0.412-0.169,0.826-0.245,1.24c-0.02,0.107-0.068,0.138-0.171,0.135
		c-0.533-0.016-1.066-0.023-1.598-0.041c-0.111-0.004-0.166,0.033-0.224,0.128c-0.187,0.303-0.386,0.599-0.592,0.889
		c-0.06,0.085-0.076,0.146-0.031,0.242c0.244,0.521,0.481,1.046,0.728,1.588c-0.21,0.143-0.419,0.286-0.63,0.428
		c-0.181,0.122-0.368,0.237-0.544,0.366c-0.096,0.07-0.152,0.051-0.227-0.029c-0.362-0.385-0.731-0.762-1.091-1.148
		c-0.08-0.086-0.149-0.1-0.264-0.072c-0.341,0.083-0.685,0.152-1.031,0.212c-0.107,0.019-0.166,0.05-0.206,0.157
		c-0.192,0.508-0.395,1.013-0.595,1.518c-0.523-0.104-1.047-0.207-1.57-0.311c0.02-0.559,0.042-1.118,0.055-1.677
		c0.001-0.048-0.048-0.112-0.092-0.142c-0.311-0.213-0.63-0.415-0.94-0.63c-0.077-0.053-0.134-0.061-0.216-0.023
		c-0.246,0.114-0.496,0.221-0.745,0.33c-0.282,0.124-0.564,0.247-0.854,0.375c-0.279-0.418-0.554-0.823-0.819-1.234
		c-0.018-0.028,0.018-0.117,0.054-0.151c0.384-0.369,0.773-0.734,1.163-1.096c0.07-0.065,0.09-0.121,0.067-0.22
		c-0.083-0.362-0.147-0.728-0.229-1.091c-0.015-0.065-0.069-0.148-0.125-0.171c-0.543-0.219-1.09-0.428-1.637-0.639
		C10.152,7.905,10.254,7.392,10.355,6.879z M14.217,8.461c-0.236,1.196,0.545,2.358,1.743,2.59c1.176,0.228,2.338-0.555,2.572-1.733
		c0.237-1.188-0.539-2.355-1.722-2.593C15.616,6.485,14.454,7.262,14.217,8.461z"/>
	<path d="M19.624,41.543c0.734,0.115,1.467,0.233,2.202,0.338c0.061,0.009,0.15-0.061,0.2-0.117
		c0.307-0.346,0.601-0.704,0.914-1.045c0.089-0.097,0.087-0.176,0.054-0.283c-0.19-0.622-0.372-1.246-0.57-1.866
		c-0.049-0.154-0.018-0.219,0.124-0.289c0.511-0.252,1.015-0.519,1.539-0.79c0.127,0.168,0.243,0.318,0.355,0.471
		c0.315,0.427,0.633,0.853,0.942,1.284c0.072,0.1,0.142,0.122,0.265,0.109c0.448-0.045,0.897-0.08,1.346-0.098
		c0.14-0.006,0.213-0.046,0.275-0.168c0.288-0.568,0.589-1.13,0.872-1.701c0.08-0.16,0.155-0.21,0.335-0.145
		c0.462,0.166,0.929,0.321,1.401,0.457c0.193,0.056,0.224,0.146,0.195,0.326c-0.102,0.635-0.184,1.274-0.285,1.909
		c-0.021,0.134,0.024,0.2,0.122,0.281c0.343,0.281,0.68,0.568,1.007,0.867c0.102,0.093,0.179,0.124,0.313,0.079
		c0.617-0.205,1.24-0.393,1.857-0.598c0.156-0.052,0.233-0.027,0.306,0.127c0.22,0.461,0.454,0.916,0.691,1.368
		c0.068,0.129,0.057,0.201-0.068,0.292c-0.536,0.391-1.061,0.796-1.595,1.191c-0.103,0.076-0.132,0.149-0.117,0.281
		c0.05,0.44,0.085,0.883,0.105,1.326c0.006,0.14,0.046,0.214,0.168,0.276c0.586,0.297,1.165,0.607,1.752,0.902
		c0.139,0.07,0.156,0.141,0.108,0.279c-0.171,0.496-0.333,0.995-0.489,1.495c-0.04,0.129-0.105,0.161-0.232,0.141
		c-0.656-0.099-1.313-0.189-1.968-0.291c-0.137-0.021-0.21,0.016-0.296,0.125c-0.277,0.346-0.567,0.682-0.865,1.01
		c-0.088,0.096-0.116,0.169-0.075,0.295c0.223,0.681,0.437,1.365,0.661,2.072c-0.281,0.145-0.561,0.29-0.842,0.434
		c-0.242,0.124-0.49,0.238-0.727,0.371c-0.129,0.073-0.196,0.04-0.276-0.07c-0.389-0.53-0.788-1.051-1.176-1.582
		c-0.086-0.118-0.168-0.146-0.315-0.129c-0.433,0.052-0.869,0.085-1.305,0.107c-0.135,0.007-0.212,0.037-0.279,0.164
		c-0.314,0.599-0.641,1.192-0.963,1.786c-0.631-0.207-1.262-0.413-1.893-0.62c0.108-0.687,0.219-1.374,0.319-2.063
		c0.008-0.059-0.043-0.146-0.093-0.19c-0.353-0.31-0.716-0.607-1.066-0.919c-0.087-0.078-0.156-0.096-0.264-0.061
		c-0.322,0.104-0.646,0.199-0.97,0.296c-0.367,0.111-0.734,0.221-1.112,0.334c-0.282-0.558-0.561-1.1-0.826-1.648
		c-0.018-0.038,0.039-0.141,0.089-0.178c0.53-0.398,1.065-0.79,1.601-1.18c0.096-0.069,0.13-0.136,0.116-0.262
		c-0.049-0.46-0.073-0.922-0.12-1.382c-0.008-0.082-0.062-0.193-0.129-0.23c-0.638-0.353-1.283-0.692-1.926-1.036
		C19.22,42.78,19.422,42.161,19.624,41.543z M24.159,44.077c-0.472,1.442,0.32,2.995,1.764,3.461
		c1.419,0.458,2.971-0.335,3.438-1.755c0.471-1.432-0.312-2.991-1.738-3.462C26.183,41.846,24.632,42.632,24.159,44.077z"/>
	<path d="M8.049,31.624c0.424,0.239,0.847,0.48,1.274,0.713c0.035,0.019,0.106-0.003,0.15-0.026
		c0.268-0.142,0.531-0.295,0.801-0.432c0.077-0.039,0.094-0.088,0.098-0.161c0.026-0.425,0.058-0.851,0.078-1.276
		c0.005-0.106,0.039-0.138,0.142-0.149c0.372-0.037,0.743-0.086,1.126-0.132c0.039,0.132,0.076,0.251,0.11,0.371
		c0.096,0.335,0.193,0.669,0.284,1.005c0.021,0.078,0.059,0.107,0.138,0.128c0.285,0.075,0.569,0.157,0.849,0.249
		c0.087,0.029,0.142,0.021,0.207-0.04c0.307-0.283,0.621-0.559,0.926-0.844c0.086-0.08,0.143-0.093,0.239-0.012
		c0.246,0.208,0.497,0.41,0.755,0.602c0.106,0.079,0.104,0.141,0.045,0.245c-0.208,0.367-0.405,0.74-0.613,1.107
		c-0.044,0.077-0.031,0.128,0.01,0.2c0.146,0.251,0.287,0.505,0.42,0.763c0.041,0.08,0.081,0.117,0.174,0.12
		c0.426,0.016,0.851,0.043,1.277,0.059c0.108,0.004,0.149,0.037,0.159,0.148c0.029,0.334,0.068,0.666,0.11,0.999
		c0.012,0.095-0.011,0.136-0.109,0.163c-0.419,0.117-0.834,0.245-1.253,0.365c-0.081,0.023-0.115,0.061-0.136,0.146
		c-0.071,0.282-0.151,0.562-0.24,0.838c-0.028,0.087-0.021,0.142,0.04,0.208c0.291,0.317,0.576,0.64,0.869,0.956
		c0.069,0.075,0.063,0.122,0.002,0.196c-0.219,0.265-0.433,0.534-0.643,0.806c-0.055,0.07-0.101,0.075-0.175,0.034
		c-0.38-0.212-0.763-0.417-1.142-0.63c-0.079-0.045-0.132-0.038-0.211,0.009c-0.249,0.149-0.505,0.289-0.763,0.421
		c-0.076,0.039-0.11,0.077-0.114,0.164c-0.019,0.469-0.045,0.938-0.069,1.424c-0.206,0.024-0.411,0.049-0.617,0.073
		c-0.177,0.02-0.355,0.033-0.532,0.061c-0.096,0.015-0.129-0.02-0.154-0.106c-0.117-0.414-0.243-0.826-0.359-1.241
		c-0.026-0.092-0.07-0.128-0.164-0.151c-0.278-0.068-0.553-0.148-0.826-0.234c-0.085-0.027-0.139-0.026-0.209,0.036
		c-0.33,0.296-0.667,0.585-1.001,0.876c-0.34-0.272-0.68-0.543-1.02-0.815c0.224-0.397,0.45-0.794,0.669-1.193
		c0.019-0.034,0.007-0.099-0.014-0.138c-0.145-0.271-0.3-0.537-0.444-0.809c-0.036-0.068-0.074-0.095-0.148-0.098
		c-0.221-0.01-0.442-0.026-0.664-0.041c-0.251-0.016-0.501-0.033-0.759-0.05c-0.045-0.407-0.092-0.804-0.129-1.201
		c-0.003-0.027,0.057-0.078,0.095-0.089c0.417-0.123,0.835-0.241,1.254-0.357c0.075-0.021,0.111-0.054,0.132-0.134
		c0.076-0.293,0.167-0.583,0.244-0.876c0.014-0.052,0.006-0.133-0.026-0.171c-0.311-0.363-0.629-0.719-0.945-1.078
		C7.517,32.291,7.783,31.958,8.049,31.624z M10.251,34.221c-0.621,0.777-0.491,1.912,0.289,2.53
		c0.766,0.607,1.901,0.476,2.514-0.289c0.618-0.771,0.495-1.908-0.273-2.524C12.006,33.315,10.873,33.442,10.251,34.221z"/>
	<path d="M16.144,36.118c0.301,0.074,0.602,0.15,0.904,0.221c0.025,0.006,0.065-0.02,0.088-0.041
		c0.14-0.133,0.276-0.271,0.418-0.402c0.041-0.037,0.043-0.07,0.033-0.116c-0.057-0.266-0.11-0.532-0.17-0.797
		c-0.015-0.066,0-0.092,0.062-0.116c0.222-0.086,0.441-0.179,0.669-0.273c0.047,0.074,0.089,0.141,0.131,0.209
		c0.116,0.189,0.232,0.378,0.345,0.569c0.026,0.044,0.055,0.056,0.106,0.055c0.188-0.003,0.376-0.001,0.564,0.008
		c0.058,0.003,0.09-0.012,0.12-0.06c0.14-0.226,0.286-0.449,0.425-0.676c0.039-0.064,0.072-0.082,0.145-0.048
		c0.186,0.086,0.375,0.167,0.566,0.241c0.078,0.03,0.088,0.069,0.069,0.143c-0.065,0.261-0.123,0.523-0.188,0.784
		c-0.014,0.055,0.003,0.084,0.04,0.121c0.132,0.129,0.263,0.261,0.388,0.397c0.039,0.042,0.07,0.058,0.127,0.044
		c0.264-0.063,0.53-0.118,0.794-0.181c0.067-0.016,0.098-0.003,0.123,0.064c0.075,0.2,0.156,0.398,0.238,0.594
		c0.023,0.056,0.016,0.086-0.039,0.119c-0.237,0.143-0.471,0.293-0.707,0.438c-0.046,0.028-0.06,0.057-0.059,0.113
		c0.005,0.185,0.003,0.37-0.005,0.555c-0.002,0.058,0.011,0.091,0.06,0.121c0.233,0.145,0.463,0.295,0.696,0.439
		c0.055,0.034,0.06,0.064,0.035,0.12c-0.089,0.2-0.175,0.402-0.258,0.604c-0.021,0.052-0.049,0.063-0.102,0.05
		c-0.269-0.065-0.539-0.126-0.808-0.192c-0.056-0.014-0.088-0.001-0.128,0.041c-0.128,0.134-0.261,0.263-0.397,0.389
		c-0.04,0.037-0.054,0.066-0.042,0.12c0.068,0.291,0.132,0.584,0.2,0.886c-0.122,0.05-0.244,0.1-0.366,0.15
		c-0.105,0.043-0.213,0.081-0.316,0.128c-0.056,0.026-0.083,0.009-0.112-0.039c-0.143-0.234-0.29-0.466-0.432-0.701
		c-0.032-0.052-0.065-0.067-0.127-0.065c-0.182,0.006-0.365,0.004-0.547-0.003c-0.057-0.002-0.09,0.008-0.122,0.058
		c-0.152,0.238-0.31,0.473-0.465,0.708c-0.255-0.109-0.51-0.218-0.765-0.326c0.07-0.282,0.141-0.564,0.208-0.847
		c0.006-0.024-0.013-0.062-0.032-0.082c-0.135-0.142-0.276-0.279-0.41-0.421c-0.033-0.035-0.062-0.045-0.108-0.035
		c-0.138,0.032-0.276,0.059-0.414,0.088c-0.157,0.033-0.313,0.065-0.475,0.099c-0.097-0.242-0.193-0.478-0.284-0.716
		c-0.006-0.016,0.022-0.057,0.043-0.071c0.235-0.146,0.472-0.29,0.709-0.433c0.042-0.025,0.059-0.052,0.058-0.105
		c-0.004-0.193,0.003-0.386,0-0.579c-0.001-0.034-0.019-0.083-0.045-0.1c-0.253-0.17-0.509-0.335-0.764-0.501
		C15.931,36.618,16.037,36.368,16.144,36.118z M17.939,37.337c-0.249,0.583,0.024,1.258,0.609,1.504
		c0.574,0.242,1.249-0.031,1.494-0.606c0.248-0.579-0.021-1.256-0.598-1.503C18.862,36.482,18.188,36.753,17.939,37.337z"/>
	<path d="M19.101,15.785c0.287,0.118,0.573,0.237,0.862,0.351c0.024,0.009,0.067-0.01,0.093-0.028
		c0.158-0.111,0.313-0.228,0.473-0.336c0.046-0.031,0.052-0.063,0.05-0.11c-0.017-0.271-0.03-0.542-0.051-0.813
		c-0.005-0.067,0.014-0.091,0.078-0.105c0.232-0.053,0.463-0.113,0.702-0.172c0.035,0.08,0.068,0.153,0.099,0.226
		c0.087,0.204,0.174,0.408,0.258,0.613c0.02,0.048,0.046,0.063,0.097,0.07c0.186,0.025,0.372,0.054,0.556,0.091
		c0.057,0.011,0.091,0.002,0.128-0.041c0.172-0.203,0.349-0.402,0.519-0.606c0.048-0.057,0.083-0.07,0.15-0.027
		c0.172,0.112,0.346,0.22,0.525,0.322c0.073,0.041,0.077,0.081,0.048,0.151c-0.103,0.248-0.198,0.5-0.301,0.748
		c-0.022,0.052-0.01,0.084,0.022,0.126c0.112,0.147,0.221,0.297,0.325,0.45c0.032,0.048,0.061,0.067,0.12,0.062
		c0.271-0.023,0.542-0.039,0.812-0.063c0.068-0.006,0.097,0.012,0.112,0.081c0.045,0.209,0.096,0.416,0.148,0.623
		c0.015,0.059,0.004,0.087-0.056,0.112c-0.256,0.107-0.508,0.221-0.763,0.329c-0.049,0.021-0.068,0.048-0.075,0.103
		c-0.023,0.184-0.051,0.367-0.086,0.549c-0.011,0.057-0.002,0.091,0.042,0.128c0.209,0.177,0.414,0.36,0.624,0.536
		c0.05,0.042,0.05,0.072,0.017,0.124c-0.117,0.185-0.232,0.372-0.344,0.56c-0.029,0.049-0.058,0.055-0.108,0.035
		c-0.257-0.104-0.515-0.204-0.771-0.309c-0.054-0.022-0.087-0.014-0.133,0.022c-0.146,0.114-0.296,0.222-0.449,0.326
		c-0.045,0.031-0.063,0.057-0.059,0.113c0.025,0.298,0.045,0.597,0.068,0.906c-0.128,0.032-0.256,0.063-0.384,0.095
		c-0.11,0.027-0.222,0.049-0.331,0.08c-0.059,0.017-0.083-0.003-0.106-0.055c-0.107-0.253-0.218-0.504-0.324-0.757
		c-0.024-0.056-0.054-0.076-0.116-0.083c-0.181-0.021-0.361-0.05-0.541-0.083c-0.056-0.01-0.09-0.006-0.129,0.039
		c-0.186,0.213-0.376,0.422-0.564,0.633c-0.236-0.145-0.473-0.29-0.709-0.435c0.111-0.269,0.222-0.537,0.33-0.807
		c0.009-0.023-0.003-0.063-0.019-0.086c-0.113-0.16-0.232-0.316-0.344-0.477c-0.028-0.04-0.054-0.054-0.101-0.05
		c-0.141,0.011-0.282,0.018-0.423,0.026c-0.16,0.009-0.32,0.019-0.484,0.028c-0.061-0.254-0.121-0.501-0.176-0.75
		c-0.004-0.017,0.03-0.054,0.053-0.064c0.254-0.11,0.509-0.218,0.765-0.324c0.046-0.019,0.066-0.043,0.073-0.095
		c0.025-0.191,0.06-0.382,0.085-0.573c0.005-0.034-0.007-0.085-0.03-0.106c-0.225-0.205-0.454-0.406-0.682-0.607
		C18.817,16.248,18.959,16.016,19.101,15.785z M20.697,17.254c-0.331,0.54-0.16,1.248,0.381,1.577
		c0.532,0.324,1.24,0.152,1.567-0.38c0.33-0.536,0.163-1.245-0.371-1.575C21.736,16.543,21.03,16.712,20.697,17.254z"/>
	<path d="M31.258,56.513"/>
	<g>
		<rect x="20.677" y="56.541" transform="matrix(0.9713 0.2377 -0.2377 0.9713 14.9798 -5.7027)" width="20.915" height="5.433"/>
		<circle cx="20.976" cy="56.771" r="2.717"/>
		<circle cx="41.291" cy="61.746" r="2.717"/>
	</g>
	<g>
		<rect x="18.989" y="62.891" transform="matrix(0.9713 0.2377 -0.2377 0.9713 16.4412 -5.1194)" width="20.915" height="5.433"/>
		<circle cx="19.288" cy="63.122" r="2.717"/>
		<circle cx="39.603" cy="68.097" r="2.717"/>
	</g>
</g>
</svg>
